<svg width="946.118" height="362.161" xmlns="http://www.w3.org/2000/svg">

 <g>
  <title>Layer 1</title>
  <g stroke="null" id="svg_1" fill="#006fba">
   <path stroke="null" id="svg_2" d="m593.71995,12.413l-164.65819,137.28376l-70.33471,0l25.27136,-53.48589l-114.97053,80.09599l128.11748,0l-60.55847,50.49034l51.71681,0l58.41424,-50.49034l89.23702,0l-17.48779,50.49034l41.77685,0l17.40453,-50.49034l62.95716,0l30.95936,-25.49683l0,-1.11328l-84.74369,0l47.32452,-137.28376l-40.42595,0zm-19.63669,53.80584l-28.91337,83.47792l-67.66659,0l96.57996,-83.47792zm42.83306,207.19842l0,75.71212l18.79659,0l0,-56.05765l105.61808,58.1523l0.13191,-77.80676l-19.14741,0l0,46.83992l-84.83724,-46.83992l-20.56193,0zm-85.54824,0l20.37763,0l0,75.71212l-20.37763,0l0,-75.71212z"/>
   <path stroke="null" id="svg_3" stroke-width="0.455" d="m356.58096,273.40978l0,75.7196l20.37576,0l0.04491,-12.64457l0.04491,-12.64363l36.09914,-0.06362c38.24898,-0.06642 37.32749,-0.04678 41.9836,-0.92617c5.34934,-1.00943 8.98853,-2.3884 12.64831,-4.7927c2.27146,-1.49216 4.92087,-4.15374 6.09963,-6.1277c0.71568,-1.19747 1.6353,-3.02923 1.5221,-3.02923c-0.06081,0 -0.02152,-0.10759 0.087,-0.23856c0.28908,-0.34802 0.84759,-2.08155 1.24799,-3.87027c1.08521,-4.85164 0.84852,-10.46386 -0.62212,-14.81499c-1.01972,-3.01614 -2.88236,-6.03414 -5.01161,-8.12224c-1.61846,-1.58759 -4.14719,-3.39222 -6.22125,-4.44001c-1.15912,-0.58564 -5.51025,-2.21065 -6.45606,-2.41085c-0.41163,-0.087 -1.49684,-0.31995 -2.41553,-0.51828c-4.76183,-1.02814 -1.40984,-0.96266 -52.56721,-1.02253l-46.85956,-0.05426zm20.37763,13.52209l33.50773,0.06642c28.87595,0.058 33.70326,0.10291 34.91383,0.33118c7.12777,1.33874 9.78467,4.1397 10.04755,10.59296c0.10571,2.56521 -0.18149,4.12567 -1.10299,5.98924c-1.50994,3.0573 -4.71692,4.98355 -9.99703,6.00608c-1.23302,0.23949 -5.46534,0.28066 -34.26457,0.33679c-18.07249,0.03555 -32.91368,0.00842 -32.98197,-0.05894c-0.06736,-0.06829 -0.12255,-5.32969 -0.12255,-11.69407l0,-11.56965z"/>
   <path stroke="null" id="svg_4" d="m99.04375,271.04571l-71.30673,78.07993l23.85872,0l12.73064,-14.40429l69.47403,0l12.6165,14.40804l24.01495,0l-71.38812,-78.08368zm0.01216,24.76899l22.55179,25.38363l-45.06896,0l22.51718,-25.38363z"/>
   <path stroke="null" id="svg_5" stroke-width="0.455" d="m806.63538,273.41727l0,75.71212l102.50745,0l3.71217,-13.52771l-85.84293,0l0,-18.09307l83.08968,0l0,-13.70078l-83.08968,0l0,-16.86286l83.08968,0l0,-13.52677l-51.73365,0l-51.73272,-0.00094zm-591.81468,0l0,75.71212l92.97819,-0.08794l5.67397,-13.34996l-78.27546,-0.08981l0,-62.18441l-20.37669,0z"/>
  </g>
 </g>
</svg>