<svg width="192.756" height="100" xmlns="http://www.w3.org/2000/svg">

 <g>
  <title>Layer 1</title>
  <g id="svg_1" clip-rule="evenodd" fill-rule="evenodd">
   <path id="svg_2" d="m0,-45l192.756,0l0,192.756l-192.756,0l0,-192.756z" fill="#fff"/>
   <path id="svg_3" fill="#fff" d="m8.881,51.378c0,-24.533 39.037,-44.421 87.498,-44.421c48.459,0 87.497,19.888 87.497,44.421c0,24.534 -39.037,44.422 -87.497,44.422c-48.461,0 -87.498,-19.888 -87.498,-44.422z"/>
   <path id="svg_4" fill="#bb2534" d="m96.378,15.033c49.469,0 79.42,20.243 79.42,36.345c0,16.103 -29.951,36.345 -79.42,36.345c-49.471,0 -79.421,-20.242 -79.421,-36.345c0.001,-16.102 29.951,-36.345 79.421,-36.345z"/>
   <path id="svg_5" d="m96.378,6.58c48.413,0 87.874,19.871 87.874,44.798c0,24.928 -39.461,44.799 -87.874,44.799s-87.875,-19.871 -87.875,-44.799c0.001,-24.927 39.462,-44.798 87.875,-44.798zm0,0.754c-48.508,0 -87.121,19.904 -87.121,44.044s38.613,44.045 87.121,44.045c48.506,0 87.12,-19.905 87.12,-44.045s-38.613,-44.044 -87.12,-44.044z"/>
   <path id="svg_6" d="m176.176,51.378c0,16.492 -30.367,36.722 -79.797,36.722s-79.798,-20.23 -79.798,-36.722s30.368,-36.722 79.798,-36.722s79.797,20.23 79.797,36.722zm-0.754,0c0,-15.712 -29.533,-35.968 -79.043,-35.968c-49.512,0 -79.044,20.256 -79.044,35.968s29.532,35.968 79.044,35.968c49.51,0 79.043,-20.256 79.043,-35.968z"/>
   <path id="svg_7" fill="#bb2534" d="m98.396,10.995a2.019,2.019 0 1 1 -4.038,0a2.019,2.019 0 0 1 4.038,0zm-6.668,0.056a2.02,2.02 0 1 1 -4.037,0.14a2.02,2.02 0 0 1 4.037,-0.14zm-6.662,0.312a2.018,2.018 0 1 1 -4.029,0.282a2.019,2.019 0 1 1 4.029,-0.282zm-6.648,0.549a2.019,2.019 0 1 1 -4.007,0.493a2.019,2.019 0 0 1 4.007,-0.493zm-6.612,0.866a2.018,2.018 0 1 1 -3.988,0.632a2.02,2.02 0 0 1 1.678,-2.311a2.02,2.02 0 0 1 2.31,1.679zm-6.573,1.129a2.02,2.02 0 1 1 -3.952,0.838a2.02,2.02 0 0 1 3.952,-0.838zm-6.511,1.447a2.02,2.02 0 1 1 -3.902,1.044a2.02,2.02 0 0 1 3.902,-1.044zm-6.425,1.791a2.018,2.018 0 1 1 -3.839,1.249a2.018,2.018 0 0 1 3.839,-1.249zm-6.306,2.168a2.02,2.02 0 1 1 -3.77,1.448a2.02,2.02 0 0 1 3.77,-1.448zm-6.176,2.519a2.019,2.019 0 1 1 -3.629,1.77a2.019,2.019 0 0 1 3.629,-1.77zm-5.96,2.995a2.02,2.02 0 1 1 -3.463,2.08a2.02,2.02 0 0 1 3.463,-2.08zm-5.649,3.544a2.018,2.018 0 0 1 -0.447,2.82a2.02,2.02 0 1 1 0.447,-2.82zm-5.276,4.085a2.018,2.018 0 1 1 -2.855,0a2.018,2.018 0 0 1 2.855,0zm-4.581,4.849a2.02,2.02 0 1 1 -2.316,3.308a2.02,2.02 0 0 1 2.316,-3.308zm-3.592,5.633a2.018,2.018 0 1 1 -1.315,3.82a2.018,2.018 0 0 1 1.315,-3.82zm83.643,48.824a2.02,2.02 0 1 1 -4.04,-0.001a2.02,2.02 0 0 1 4.04,0.001zm-6.67,-0.057a2.02,2.02 0 1 1 -4.033,-0.141a2.02,2.02 0 0 1 4.033,0.141zm-6.662,-0.312a2.019,2.019 0 1 1 -4.028,-0.282a2.019,2.019 0 0 1 4.028,0.282zm-6.647,-0.548a2.02,2.02 0 1 1 -4.009,-0.493a2.02,2.02 0 0 1 4.009,0.493zm-6.613,-0.867a2.02,2.02 0 1 1 -3.99,-0.631a2.02,2.02 0 0 1 3.99,0.631zm-6.574,-1.128a2.019,2.019 0 1 1 -3.95,-0.84a2.019,2.019 0 0 1 3.95,0.84zm-6.511,-1.448a2.02,2.02 0 1 1 -3.901,-1.045a2.02,2.02 0 0 1 3.901,1.045zm-6.425,-1.791a2.018,2.018 0 1 1 -3.84,-1.247a2.018,2.018 0 0 1 3.84,1.247zm-6.307,-2.168a2.02,2.02 0 1 1 -3.77,-1.448a2.02,2.02 0 0 1 3.77,1.448zm-6.176,-2.519a2.019,2.019 0 1 1 -3.63,-1.769a2.019,2.019 0 0 1 3.63,1.769zm-5.961,-2.994c-0.574,0.956 -1.814,1.265 -2.771,0.69s-1.266,-1.814 -0.69,-2.771a2.019,2.019 0 1 1 3.461,2.081zm-5.648,-3.545a2.02,2.02 0 1 1 -3.268,-2.374a2.02,2.02 0 0 1 3.268,2.374zm-5.277,-4.084a2.02,2.02 0 1 1 -2.855,-2.857a2.02,2.02 0 0 1 2.855,2.857zm-4.583,-4.849a2.019,2.019 0 1 1 -2.317,-3.309a2.019,2.019 0 0 1 2.317,3.309zm-3.592,-5.633a2.02,2.02 0 1 1 -1.313,-3.82a2.02,2.02 0 0 1 1.313,3.82zm-1.764,-6.423a2.02,2.02 0 1 1 -0.139,-4.037a2.02,2.02 0 0 1 0.139,4.037zm166.92,-4.036a2.018,2.018 0 1 1 -0.14,4.034a2.018,2.018 0 0 1 0.14,-4.034zm-0.592,6.64a2.019,2.019 0 1 1 -1.314,3.818a2.019,2.019 0 0 1 1.314,-3.818zm-2.589,6.144a2.02,2.02 0 1 1 -2.316,3.308a2.02,2.02 0 0 1 2.316,-3.308zm-4.043,5.301a2.018,2.018 0 1 1 -2.855,2.855a2.018,2.018 0 1 1 2.855,-2.855zm-4.866,4.567a2.019,2.019 0 1 1 -3.266,2.373a2.019,2.019 0 0 1 3.266,-2.373zm-5.455,3.838a2.018,2.018 0 1 1 -2.769,-0.69a2.015,2.015 0 0 1 2.769,0.69zm-5.793,3.303a2.018,2.018 0 1 1 -3.629,1.77a2.019,2.019 0 0 1 3.629,-1.77zm-6.035,2.843a2.02,2.02 0 1 1 -3.768,1.446a2.02,2.02 0 0 1 3.768,-1.446zm-6.236,2.367a2.019,2.019 0 1 1 -3.84,1.25a2.019,2.019 0 0 1 3.84,-1.25zm-6.365,1.994a2.018,2.018 0 1 1 -3.901,1.045a2.02,2.02 0 0 1 3.901,-1.045zm-6.461,1.653a2.02,2.02 0 1 1 -3.951,0.84a2.02,2.02 0 0 1 3.951,-0.84zm-6.536,1.336a2.019,2.019 0 1 1 -3.988,0.634a2.019,2.019 0 0 1 3.988,-0.634zm-6.593,1.007a2.018,2.018 0 1 1 -4.008,0.492a2.018,2.018 0 0 1 1.758,-2.25a2.017,2.017 0 0 1 2.25,1.758zm-6.627,0.757a2.017,2.017 0 0 1 -1.873,2.155a2.019,2.019 0 1 1 1.873,-2.155zm-6.655,0.454a2.019,2.019 0 1 1 -4.035,0.143a2.019,2.019 0 0 1 4.035,-0.143z"/>
   <path id="svg_8" fill="#bb2534" d="m94.362,10.995a2.02,2.02 0 1 1 4.04,0a2.02,2.02 0 0 1 -4.04,0zm6.669,0.056a2.02,2.02 0 1 1 4.037,0.143a2.02,2.02 0 0 1 -4.037,-0.143zm6.662,0.312a2.019,2.019 0 1 1 4.028,0.282a2.019,2.019 0 0 1 -4.028,-0.282zm6.647,0.549a2.019,2.019 0 1 1 4.008,0.492a2.019,2.019 0 0 1 -4.008,-0.492zm6.613,0.866a2.02,2.02 0 1 1 3.99,0.632a2.02,2.02 0 0 1 -3.99,-0.632zm6.572,1.129a2.02,2.02 0 0 1 3.951,0.839a2.02,2.02 0 0 1 -3.951,-0.839zm6.512,1.447a2.02,2.02 0 0 1 3.901,1.045a2.02,2.02 0 0 1 -3.901,-1.045zm6.424,1.791a2.02,2.02 0 1 1 3.841,1.249a2.02,2.02 0 0 1 -3.841,-1.249zm6.307,2.168c0.4,-1.042 1.568,-1.561 2.609,-1.162s1.561,1.568 1.16,2.608a2.016,2.016 0 0 1 -2.607,1.162a2.017,2.017 0 0 1 -1.162,-2.608zm6.175,2.519a2.019,2.019 0 1 1 3.63,1.77a2.019,2.019 0 0 1 -3.63,-1.77zm5.961,2.995a2.019,2.019 0 1 1 3.461,2.078a2.019,2.019 0 0 1 -3.461,-2.078zm5.649,3.544a2.018,2.018 0 1 1 3.266,2.373a2.018,2.018 0 0 1 -3.266,-2.373zm5.275,4.085a2.018,2.018 0 1 1 0,2.855a2.018,2.018 0 0 1 0,-2.855zm4.582,4.849a2.018,2.018 0 1 1 2.316,3.308a2.018,2.018 0 1 1 -2.316,-3.308zm3.592,5.633a2.018,2.018 0 1 1 1.314,3.818a2.018,2.018 0 1 1 -1.314,-3.818z"/>
   <path id="svg_9" fill="#fff" d="m31.595,65.447l8.723,0c3.646,0 6.212,-3.891 6.212,-7.093c0,-3.055 -1.439,-4.873 -3.097,-5.776l-0.659,-0.359l0.641,-0.391c1.489,-0.907 2.451,-3.401 2.451,-5.104c0,-2.155 -1.296,-5.136 -4.202,-6.097l0.105,-0.298c0.759,0.253 1.375,0.61 1.84,0.94c0.486,0.345 0.808,0.66 0.956,0.794c0.373,0.339 1.012,0.925 1.59,1.579c0.502,0.568 0.915,1.1 1.203,1.526c0.856,1.27 1.256,2.758 1.256,3.97c0,1.689 -0.901,4.17 -2.402,5.247l-0.1,0.071l1.14,1.14c1.171,1.095 2.027,2.778 2.027,5.172c0,3.309 -2.646,7.42 -6.541,7.42l-9.26,0l-2.315,-2.309l0.432,-0.432zm7.051,-3.239l-2.748,0l0,-8.391l3.091,0c1.35,0 2.471,1.233 2.903,2.808a1.837,1.837 0 0 0 -0.483,-0.065l-2.763,0l0,5.648zm0,-11.643a3.726,3.726 0 0 1 -0.321,0.013l-2.426,0l0,-7.023l2.426,0c1.458,0 2.774,0.985 3.042,2.811a2.81,2.81 0 0 0 -0.622,-0.069l-2.098,0l0,4.268l-0.001,0zm21.339,15.502c4.071,0 7.542,-3.381 7.542,-7.496l0,-18.107l0.433,-0.433l2.315,2.309l0,18.644c0,4.301 -3.622,7.825 -7.87,7.825c-1.832,0 -3.743,-0.76 -5.642,-2.178c-1.341,-1.002 -2.669,-2.727 -2.876,-3.164c-0.076,-0.159 -0.396,-0.691 -0.745,-1.403l0.168,-0.046c1.279,2.397 3.829,4.049 6.675,4.049zm-2.658,-26.036l2.315,2.309l0,18.644c0,0.206 0.022,0.407 0.065,0.601c-1.672,-0.132 -2.813,-1.459 -2.813,-3.014l-0.001,-18.107l0.434,-0.433zm18.036,23.26c-0.081,-0.171 -0.422,-0.733 -0.777,-1.482l0.176,-0.057c1.242,2.54 3.9,4.317 6.853,4.317c5.144,0 7.489,-2.982 7.489,-7.498l0,-5.793l0.433,-0.433l2.315,2.309l0,6.33c0,4.677 -2.473,7.824 -7.818,7.824c-1.935,0 -3.781,-0.748 -5.694,-2.177c-1.402,-1.046 -2.769,-2.901 -2.977,-3.34zm9.298,-4.683l-2.315,-2.309l0.433,-0.434l2.539,0l0,2.742l-0.657,0l0,0.001zm-6.19,-0.035l0,-11.38c0,-1.8 1.274,-3.337 3.105,-3.499c2.017,-0.177 3.47,1.132 3.707,2.964c-0.374,-0.145 -0.798,-0.264 -1.259,-0.223c-1.647,0.145 -2.806,1.548 -2.806,3.171l0,11.38c0,0.306 0.051,0.609 0.146,0.898c-1.706,-0.256 -2.893,-1.753 -2.893,-3.311zm8.885,-17.366c0.655,0.504 1.349,1.079 2.061,1.91c0.65,0.759 1.124,1.502 1.455,2.111c0.656,1.208 0.98,2.692 0.98,4.378l0,0.434l-4.504,0l-2.315,-2.309l0.433,-0.434l3.638,0l0,-0.104c0,-3.463 -1.379,-6.038 -4.374,-7.04l0.075,-0.317c1.024,0.338 1.835,0.828 2.551,1.371zm16.482,15.757l-3.303,0l2.723,-12.044c0.17,-0.739 0.705,-0.718 0.848,0.009l1.16,5.72l-1.428,6.315zm4.223,8.916l0.434,-0.433l4.348,0l-5.752,-25l0.324,-0.407l2.316,2.31l6.158,25.838l-5.514,0l-2.314,-2.308zm-5.678,-2.48l-1.082,4.788l-5.388,0l-2.305,-2.299l0.571,-0.442l4.438,0l1.084,-4.789l7.594,0l0.557,2.742l-5.469,0zm17.556,2.529l0.434,-0.433l4.303,0l0,-21.257l5.316,0l0,-3.775l0.432,-0.433l2.316,2.309l0,4.641l-5.316,0l0,21.257l-5.17,0l-2.315,-2.309zm-3.001,-18.948l-2.314,-2.309l0.434,-0.433l5.168,0l0,2.742l-3.288,0zm19.455,0l-2.314,-2.309l0.434,-0.433l5.168,0l0,2.742l-3.288,0zm13.486,-6.95l2.314,2.309l0,4.641l-5.316,0l0,21.257l-5.168,0l-2.314,-2.31l0.434,-0.433l4.301,0l0,-21.256l5.316,0l0,-3.775l0.433,-0.433zm9.41,0l2.315,2.309l0,25.848l-5.168,0l-2.315,-2.308l0.432,-0.433l4.302,0l0,-24.983l0.434,-0.433z"/>
   <path id="svg_10" fill="#9894c6" d="m46.359,46.725c0,-1.366 -0.494,-3.075 -1.565,-4.451c0.375,0.346 0.888,0.835 1.36,1.369c0.502,0.568 0.915,1.1 1.203,1.526c0.856,1.27 1.256,2.758 1.256,3.97c0,1.689 -0.901,4.17 -2.402,5.247l-0.1,0.071l1.14,1.14c1.171,1.095 2.027,2.778 2.027,5.172c0,3.309 -2.646,7.42 -6.541,7.42l-9.26,0l-2.254,-2.248l9.095,0c4.019,0 6.706,-4.223 6.706,-7.586c0,-3.184 -1.489,-5.155 -3.265,-6.16c1.637,-1.068 2.6,-3.7 2.6,-5.47zm-7.713,14.99l-2.254,0l0,-7.404l2.597,0c0.99,0 1.951,0.929 2.373,2.249l-2.716,0l0,5.155zm-0.322,-17.666c1.158,0 2.254,0.744 2.531,2.25l-0.111,-0.002l-2.098,0l0,3.772c-0.104,0.01 -0.211,0.016 -0.321,0.016l-1.933,0l0,-6.036l1.932,0zm21.318,16.935l0.002,0.099c-1.356,-0.156 -2.256,-1.244 -2.256,-2.512l-0.001,-18.479l2.255,2.249l0,18.643zm-5.103,3.419c1.447,1.337 3.374,2.158 5.446,2.158c4.338,0 8.035,-3.597 8.035,-7.99l0,-18.479l2.254,2.249l0,18.644c0,4.301 -3.622,7.825 -7.87,7.825c-1.832,0 -3.743,-0.76 -5.642,-2.178c-0.835,-0.624 -1.666,-1.529 -2.223,-2.229zm21.576,-0.026c1.462,1.354 3.413,2.187 5.5,2.187c5.446,0 7.982,-3.234 7.982,-7.992l0,-6.165l2.255,2.248l0,6.33c0,4.677 -2.473,7.824 -7.818,7.824c-1.935,0 -3.781,-0.748 -5.694,-2.177c-0.833,-0.622 -1.653,-1.529 -2.225,-2.255zm6.292,-8.017l2.417,0l0,2.248l-0.163,0l-2.254,-2.248zm-0.787,-12.173c1.645,-0.145 2.848,0.841 3.138,2.307a2.358,2.358 0 0 0 -0.732,-0.058c-1.647,0.145 -2.806,1.548 -2.806,3.171l0,11.38c0,0.126 0.008,0.25 0.025,0.374c-1.355,-0.299 -2.28,-1.526 -2.28,-2.787l0,-11.38c0,-1.567 1.1,-2.871 2.655,-3.007zm3.474,3.605l4.503,0l0,-0.599c0,-2.333 -0.61,-4.3 -1.874,-5.698c0.545,0.437 1.114,0.944 1.694,1.622c0.65,0.759 1.124,1.502 1.455,2.111c0.656,1.208 0.98,2.692 0.98,4.378l0,0.434l-4.504,0l-2.254,-2.248zm18.855,8.678l-2.795,0l2.523,-11.166l1.323,6.519l-1.051,4.647zm4.172,9.47l5.342,0l-5.932,-25.785l2.199,2.194l6.158,25.838l-5.514,0l-2.253,-2.247zm-14.462,0l5.353,0l1.084,-4.788l6.797,0l0.455,2.248l-4.965,0l-1.082,4.788l-5.388,0l-2.254,-2.248zm26.341,0.05l5.17,0l0,-21.257l5.316,0l0,-4.642l2.254,2.249l0,4.641l-5.316,0l0,21.257l-5.17,0l-2.254,-2.248zm-5.314,-21.257l5.045,0l0,2.248l-2.793,0l-2.252,-2.248zm19.453,0l5.047,0l0,2.248l-2.793,0l-2.254,-2.248zm5.316,21.257l5.168,0l0,-21.257l5.316,0l0,-4.642l2.254,2.249l0,4.641l-5.316,0l0,21.257l-5.168,0l-2.254,-2.248zm14.727,-0.05l5.168,0l0,-25.848l2.254,2.248l0,25.848l-5.168,0l-2.254,-2.248z"/>
   <path id="svg_11" d="m31.014,65.88l0.538,-0.537l8.766,0c3.568,0 6.108,-3.82 6.108,-6.988c0,-3.017 -1.418,-4.8 -3.042,-5.685l-0.819,-0.446l0.796,-0.484c1.446,-0.882 2.4,-3.333 2.4,-5.015c0,-2.149 -1.31,-5.124 -4.232,-6.03l0.175,-0.496c1.631,0.517 2.631,1.516 2.931,1.788c0.373,0.339 1.016,0.929 1.598,1.586c0.505,0.572 0.921,1.107 1.211,1.538c0.869,1.287 1.274,2.795 1.274,4.028c0,1.711 -0.909,4.229 -2.446,5.331l1.052,1.053c1.193,1.115 2.058,2.826 2.058,5.246c0,3.343 -2.672,7.525 -6.645,7.525l-9.303,0l-2.42,-2.414zm7.736,-9.217l0,5.65l-2.957,0l0,-8.602l3.196,0c1.473,0 2.653,1.391 3.051,3.07a1.792,1.792 0 0 0 -0.631,-0.119l-2.659,0l0,0.001zm0,-10.261l0,4.259a3.916,3.916 0 0 1 -0.426,0.022l-2.531,0l0,-7.232l2.531,0c1.552,0 2.944,1.083 3.166,3.056a2.668,2.668 0 0 0 -0.746,-0.105l-1.994,0zm14.614,15.494c1.248,2.405 3.787,4.067 6.621,4.067c4.015,0 7.437,-3.336 7.437,-7.392l0,-18.15l0.538,-0.537l2.419,2.413l0,18.688c0,4.359 -3.669,7.93 -7.975,7.93c-1.861,0 -3.793,-0.772 -5.705,-2.198c-1.352,-1.01 -2.691,-2.747 -2.907,-3.203c-0.08,-0.168 -0.43,-0.748 -0.8,-1.516l0.372,-0.102zm3.425,-21.475l0.538,-0.537l2.419,2.413l0.001,18.688c0,0.246 0.033,0.486 0.096,0.714c-1.806,-0.07 -3.054,-1.475 -3.054,-3.127l0,-18.151zm48.582,10.228l-1.449,6.419l-3.518,0l2.752,-12.172c0.197,-0.854 0.889,-0.82 1.051,0.012l1.164,5.741zm4.961,17.645l-2.42,-2.414l0.539,-0.537l4.26,0l-5.732,-24.922l0.428,-0.537l2.42,2.413l6.195,25.997l-5.69,0zm-2.353,-4.789l-5.512,0l-1.084,4.789l-5.513,0l-2.42,-2.414l0.692,-0.537l4.393,0l1.082,-4.789l7.764,0l0.598,2.951zm14.232,4.838l-2.42,-2.414l0.539,-0.537l4.24,0l0,-21.257l5.316,0l0,-3.714l0.537,-0.537l2.42,2.413l0,4.789l-5.316,0l0,21.257l-5.316,0zm-1.881,-21.257l-3.436,0l-2.42,-2.414l0.539,-0.538l5.316,0l0,2.952l0.001,0zm19.453,0l-3.434,0l-2.42,-2.414l0.537,-0.538l5.316,0l0,2.952l0.001,0zm9.559,-6.665l0.537,-0.537l2.42,2.413l0,4.789l-5.316,0l0,21.257l-5.316,0l-2.42,-2.414l0.537,-0.537l4.242,0l0,-21.257l5.316,0l0,-3.714zm9.41,0l0.537,-0.537l2.42,2.413l0,25.997l-5.316,0l-2.42,-2.414l0.537,-0.537l4.242,0l0,-24.922zm-80.474,26.295c-1.415,-1.057 -2.793,-2.924 -3.009,-3.38c-0.084,-0.179 -0.456,-0.788 -0.827,-1.591l0.375,-0.12c1.208,2.55 3.856,4.34 6.798,4.34c5.08,0 7.384,-2.929 7.384,-7.394l0,-5.836l0.538,-0.538l2.419,2.414l0,6.373c0,4.729 -2.512,7.93 -7.922,7.93c-1.964,0 -3.831,-0.761 -5.756,-2.198zm7.145,-8.003l-0.806,0l-2.419,-2.413l0.537,-0.537l2.687,0l0,2.809l0.001,0.141zm-3.901,3.297c-1.852,-0.187 -3.156,-1.776 -3.156,-3.437l0,-11.38c0,-1.849 1.311,-3.437 3.201,-3.602c2.14,-0.188 3.667,1.255 3.839,3.229c-0.409,-0.169 -0.871,-0.324 -1.373,-0.28c-1.589,0.14 -2.71,1.493 -2.71,3.067l0,11.38c0.001,0.35 0.07,0.697 0.199,1.023zm3.207,-22.308c1.089,0.343 1.943,0.855 2.691,1.422c0.658,0.506 1.359,1.086 2.077,1.925a12.402,12.402 0 0 1 1.468,2.129c0.666,1.228 0.992,2.729 0.992,4.429l0,0.538l-4.652,0l-2.419,-2.413l0.538,-0.539l3.577,0c0,-3.468 -1.391,-6.009 -4.393,-6.97l0.121,-0.521z"/>
   <path id="svg_12" fill="#fff" d="m36.331,54.25l0,7.525l2.658,0c1.686,0 2.658,-1.854 2.658,-3.763c0,-2.053 -1.282,-3.763 -2.658,-3.763l-2.658,0l0,0.001zm0,-10.262l0,6.157l1.994,0c1.686,0 2.658,-1.169 2.658,-3.079c0,-2.052 -1.282,-3.079 -2.658,-3.079l-1.994,0l0,0.001zm7.31,8.209c1.795,0.979 3.323,2.941 3.323,6.157c0,3.344 -2.672,7.525 -6.646,7.525l-9.304,0l0,-25.995l8.639,0c4.652,0 6.645,4.104 6.645,6.841c0,1.789 -0.993,4.459 -2.657,5.472zm19.002,6.374l0,-18.687l5.316,0l0,18.688c0,4.359 -3.669,7.929 -7.975,7.929s-7.975,-3.569 -7.975,-7.929l0,-18.688l5.316,0l0.001,18.688c0,1.404 1.078,2.592 2.657,2.592s2.66,-1.188 2.66,-2.593zm22.242,0l0,-2.271l-2.686,0l0,-4.104l7.338,0.001l0,6.374c0,4.728 -2.513,7.932 -7.922,7.932c-4.305,0 -8.027,-3.572 -8.027,-7.932l0,-11.378c0,-4.359 3.722,-7.929 8.027,-7.929c5.409,0 7.922,3.201 7.922,7.929l0,0.539l-4.652,0l0,-0.539c0,-1.872 -1.337,-3.237 -3.27,-3.067c-1.589,0.14 -2.711,1.472 -2.711,3.067l0,11.38c0,1.404 1.122,2.766 2.711,2.905c1.932,0.17 3.27,-1.035 3.27,-2.907zm21.131,-2.041l-2.336,-11.516l-2.602,11.516l4.938,0zm-12.566,9.35l6.646,-25.996l7.311,0l5.98,25.996l-5.475,0l-0.971,-4.789l-6.895,0l-1.084,4.789l-5.512,0zm31.657,0.049l-5.316,0l0,-21.257l-5.316,0l0,-4.788l15.949,0l0,4.788l-5.317,0l0,21.257zm19.455,0l-5.316,0l0,-21.257l-5.316,0l0,-4.788l15.949,0l0,4.788l-5.317,0l0,21.257zm9.411,-26.045l5.316,0l0,25.996l-5.316,0l0,-25.996z"/>
   <path id="svg_13" fill="#9894c6" d="m97.871,28.35l0,4.367l4.32,0c1.363,0 2.184,-0.982 2.184,-2.183c0,-1.201 -0.82,-2.184 -2.184,-2.184l-4.32,0zm0,-6.771l0,3.891l4.32,0c1.207,0 1.947,-0.875 1.947,-1.946c0,-1.069 -0.74,-1.945 -1.947,-1.945l-4.32,0zm-8.343,6.875l0,-4.013l2.403,0l0,1.029l2.704,0l0,-3.891l-6.493,0l0,1.307l-2.404,0l0,-3.711l16.453,0a4.587,4.587 0 0 1 3.451,7.61l-0.062,0.072l0.066,0.069a4.825,4.825 0 0 1 -3.455,8.194l-16.453,0l0,-3.711l2.404,0l0,1.307l6.493,0l0,-4.366l-2.704,0l0,1.03l-2.403,0l0,-0.926z"/>
   <path id="svg_14" d="m102.191,32.611c1.301,0 2.08,-0.93 2.08,-2.078c0,-1.148 -0.779,-2.079 -2.08,-2.079l-4.217,0l0,4.157l4.217,0zm0,-7.245c1.145,0 1.842,-0.825 1.842,-1.842c0,-1.017 -0.697,-1.841 -1.842,-1.841l-4.217,0l0,3.683l4.217,0zm-10.155,3.088l0,1.029l-2.612,0l0,-5.147l2.612,0l0,1.03l2.495,0l0,-3.683l-6.284,0l0,1.307l-2.613,0l0,-3.92l16.558,0a4.693,4.693 0 0 1 3.529,7.784a4.93,4.93 0 0 1 -3.53,8.37l-16.557,0l0,-3.92l2.613,0l0,1.307l6.284,0l0,-4.157l-2.495,0z"/>
  </g>
 </g>
</svg>