<svg width="192.756" height="50" xmlns="http://www.w3.org/2000/svg">

 <g>
  <title>Layer 1</title>
  <path stroke="null" id="svg_3" fill="#1f5796" d="m66.47603,21.31849c2.60281,-2.83003 7.19542,-3.08198 8.72741,-3.08198c0.74687,0 2.69505,0.06299 4.59935,0.66139c3.89635,1.22492 5.85014,3.83786 5.85014,6.69938c0,0.56803 -0.04724,1.76258 -0.83911,3.1461c-0.83461,1.478 -3.34406,4.27766 -9.47316,4.27766c-2.22825,0 -3.66913,-0.34757 -4.50149,-0.56241c-5.38335,-1.54324 -5.9435,-5.22587 -6.04024,-6.51378c-0.04162,-0.78624 -0.08886,-2.76816 1.67709,-4.62635zm-4.7827,12.11309c4.69271,3.52291 11.33022,3.74225 13.56185,3.74225c4.22254,0 8.44621,-0.78512 11.69579,-2.54882c2.09102,-1.13156 6.03911,-3.96496 6.03911,-8.90176c0,-1.25866 -0.32507,-4.68934 -3.80861,-7.55198c-3.48242,-2.8289 -8.81852,-4.08756 -13.92629,-4.08756c-1.86044,0 -7.4305,0.15747 -11.89038,2.60956c-2.13489,1.16305 -6.03799,4.09094 -5.9435,9.06035c0.04724,1.35427 0.4173,4.78157 4.27203,7.67796zm46.22187,-18.65499l29.27771,0l0.32957,4.1978l-11.29648,0l0,17.49306l-7.34164,0l0,-17.49306l-11.32122,0l0.35207,-4.1978zm-74.10931,14.35259c-0.61977,0.93022 -0.97071,1.27891 -1.46338,1.67259c-1.26429,1.03258 -3.37331,2.15851 -7.60597,2.15851c-0.2812,0.01237 -0.57028,0.01687 -0.86723,0.01687c-1.55899,0 -4.89518,-0.10461 -7.81406,-2.13264c-2.50046,-1.74121 -2.70405,-4.22029 -2.70405,-5.13139c0,-2.97962 1.78058,-4.56561 2.95038,-5.38222c2.00104,-1.31715 4.97841,-2.06853 8.00866,-2.06853c0.14623,0 0.4263,0.01912 0.4263,0.01912c2.87164,0 4.85131,0.73225 5.7984,1.18668c1.63997,0.82224 2.46334,1.76595 2.92001,2.28337l7.93104,-0.96621c-0.16197,-0.3037 -0.37006,-0.6074 -0.57365,-0.9111c-0.53766,-0.70301 -1.88743,-2.19563 -4.35864,-3.44417c-4.52174,-2.2215 -10.1143,-2.34298 -11.71716,-2.34298l-0.03712,0c-4.24729,0 -8.55194,0.48929 -12.27956,2.35535c-4.09544,2.04491 -6.16284,5.62068 -6.16284,9.1031c0,3.69838 1.83007,6.92209 5.22587,9.00524c3.2912,2.01566 7.99853,2.63318 12.43591,2.63318c0.27333,0 0.54666,-0.00562 0.81774,-0.01125c6.88609,-0.06299 10.60922,-1.67034 12.95108,-3.19559c1.76708,-1.15518 2.54995,-2.13039 2.99762,-2.79853c0.37231,-0.54891 0.89085,-1.40826 0.99208,-2.04266l-7.87143,-0.00675zm144.85094,-14.35259l-8.43383,8.83089c-0.44767,0.43755 -0.72663,0.98421 -0.72663,0.98421s-0.27445,-0.54666 -0.72663,-0.98196c-0.05062,-0.04724 -7.44288,-7.98841 -8.22462,-8.83314l-7.99853,0l13.29077,13.29752l0,8.37422l7.33714,0l0,-8.37422l13.32451,-13.29752l-7.84218,0z"/>
 </g>
</svg>