<svg width="524.413" height="278.357" xmlns="http://www.w3.org/2000/svg">

 <g>
  <title>Layer 1</title>
  <path stroke="null" id="svg_1" d="m329.98835,6.6852l-15.03944,0c0,27.30055 -6.88454,39.6814 -21.21119,48.26264l0,-48.27031l-23.1407,0l0,58.3097c-4.31984,1.51467 -8.96063,3.08492 -13.93577,4.79024c-2.79079,0.95038 -5.49345,1.89694 -8.11946,2.83295l0,-65.93289l-23.1522,0l0,75.56415c-23.40991,11.87693 -36.08489,28.3132 -36.08489,65.40117l15.03657,0c0,-25.32313 6.2024,-37.86399 21.04928,-47.20017l0,47.21837l23.1522,0l0,-57.87953c3.92704,-1.4639 8.13,-2.93546 12.66157,-4.49133c3.19797,-1.09601 6.33078,-2.16327 9.39366,-3.21904l0,65.58991l23.1407,0l0,-74.72298c22.05619,-10.6535 36.25063,-26.61458 36.25063,-66.25288m-87.64226,249.73638l-27.37719,0l-0.0115,-20.23781l27.47491,0c8.13766,0 11.66711,3.18072 11.66711,10.40728c0,5.40914 -2.21118,9.83053 -11.7543,9.83053m-2.43632,-51.08601c8.78147,0 11.48413,3.18743 11.48413,8.49118c0,5.29609 -2.34147,9.08038 -11.15264,9.08038l-25.2829,0.00862l0,-17.57923l24.95141,0l0,-0.00096zm20.86054,23.55266c4.87359,-3.80633 7.6596,-9.35438 7.6596,-16.0636c0,-6.69101 -2.71319,-22.24492 -27.74508,-22.24492l-41.3896,0l0,80.53929l44.01657,0c17.72389,0 27.89837,-8.94913 27.89837,-24.50304c0,-7.58774 -3.61759,-13.65602 -10.43985,-17.72773m184.8401,-38.30948l0,16.37975l25.32313,0l0,64.15954l15.79055,0l0,-64.15954l24.68891,0l0,-16.37975l-65.80259,0zm-49.58858,66.83633c-15.32303,0 -27.33983,-11.77633 -27.33983,-26.8129s12.0168,-26.80523 27.34078,-26.80523c15.34219,0 27.34366,11.76867 27.34366,26.80619s-12.00147,26.81194 -27.34366,26.81194m0,-69.13181c-24.19359,0 -43.16008,18.58805 -43.16008,42.32274c0,23.73852 18.96648,42.31891 43.16008,42.31891c24.20797,0 43.17062,-18.58039 43.17062,-42.31891c0,-23.73469 -18.96265,-42.32274 -43.17062,-42.32274m-102.4077,2.29548l0,80.52109l54.35391,0l0,-16.29353l-38.58923,0l0,-64.22756l-15.76469,0zm-131.15299,0.00287l0,42.03437c0,12.22086 -1.26462,25.17272 -21.28783,25.17272c-20.02992,0 -21.45358,-12.67881 -21.45358,-25.17272l0,-42.03437l-15.69283,0l0,43.03266c0,19.21749 5.36986,39.74272 37.14737,39.74272c31.76888,0 37.10904,-20.82031 37.10904,-39.74272l0,-43.03266l-15.82217,0zm-97.11257,-0.00287l0,29.98883l-40.57335,0l0,-30.00703l-15.77618,0l0,80.56803l15.77618,0l0,-34.07874l40.57335,0l0,34.07874l15.66696,0l0,-80.54983l-15.66696,0z"/>
 </g>
</svg>