<svg viewBox="0 0 425.2 119.1" xmlns="http://www.w3.org/2000/svg" width="2500" height="700"><path d="M168.6 28.3c-17 0-29 14.2-29 31.2s12 31.2 29 31.2 29-14.2 29-31.2c.1-17-12-31.2-29-31.2zm0 90.7c-32.6 0-59.5-25.5-59.5-59.5S136 0 168.6 0s59.5 25.5 59.5 59.5-26.9 59.5-59.5 59.5zm126.2-35.4c0 4.2-4.2 7.8-11.3 7.8-15.6 0-25.5-10.6-25.5-10.6l-17 22.7s14.2 15.6 42.5 15.6c22.7 0 42.5-14.2 42.5-35.4 0-34-53.9-36.9-53.9-48.2 0-4.2 5.7-7.8 14.2-7.8 11.3 0 17.7 5.7 17.7 5.7l16.3-22S306.1.1 283.5.1c-21.3 0-39.7 15.6-39.7 35.4-.1 33.9 51 35.3 51 48.1zM77.9 53.8c5-6.4 7.1-12.7 7.1-19.8C85 16.7 71 2.8 53.8 2.8H0v113.4h58.8c19.2 0 34.7-15.6 34.7-34.7 0-11.9-5.7-22-15.6-27.7zM29 27.6h17.7c5.5 0 9.9 4.4 9.9 9.9s-4.4 9.9-9.9 9.9H29zm23.4 63.1H29V69.4h23.4C58.3 69.4 63 74.2 63 80c0 5.9-4.7 10.7-10.6 10.7zM394 83.6c0 4.2-4.2 7.8-11.3 7.8-15.6 0-25.5-10.6-25.5-10.6l-17 22.7s14.2 15.6 42.5 15.6c22.7 0 42.5-14.2 42.5-35.4 0-34-53.9-36.9-53.9-48.2 0-4.2 5.7-7.8 14.2-7.8 11.3 0 17.7 5.7 17.7 5.7l16.3-22S405.3.1 382.7.1C361.4.1 343 15.7 343 35.5c-.1 33.9 51 35.3 51 48.1z"/></svg>