<svg width="192.756" height="70" xmlns="http://www.w3.org/2000/svg">

 <g>
  <title>Layer 1</title>
  <path id="svg_3" d="m57.842,60.688c-5.474,0 -10.71,-3.066 -14.1,-7.254c-3.863,-4.76 -5.745,-10.912 -5.745,-16.996c0,-5.846 1.729,-11.727 5.304,-16.387c3.525,-4.575 8.829,-7.846 14.727,-7.846c5.423,0 10.625,3.102 13.964,7.236c3.847,4.762 5.762,10.93 5.762,17.015c0,5.828 -1.746,11.709 -5.305,16.369c-3.49,4.54 -8.761,7.863 -14.607,7.863zm-55.008,-47.483l16.489,0l0,0.473l-4.05,0l12.303,33.689l10.388,-33.689l-4.084,0l0,-0.473l8.897,0l0,0.473l-3.932,0l-14.641,46.568l-17.031,-46.568l-4.339,0l0,-0.473zm111.016,-0.814l0,16.184l-0.373,0c-0.695,-3.186 -1.678,-6.287 -3.389,-9.1c-2.033,-3.288 -5.27,-6.981 -9.49,-6.981c-9.693,0 -10.574,17.37 -10.574,23.996c0,5.932 0.474,12.049 2.626,17.607c1.508,3.898 3.694,5.812 7.745,5.812c3.219,0 6.643,-1.627 8.354,-4.424c0.441,-0.729 0.475,-1.541 0.475,-2.371l0,-12.508l-4.236,0l0,-0.49l15.506,0l0,0.49l-3.627,0l0,18.709l-0.32,0c-0.916,-1.525 -2.357,-2.525 -4.203,-2.525c-1.34,0 -2.645,0.475 -3.812,1.119l-1.051,0.576c-2.373,1.051 -4.645,1.812 -7.271,1.812c-12.031,0 -18.437,-12.828 -18.437,-23.469c0,-7.779 2.966,-16.1 9.27,-20.963c2.83,-2.187 6.253,-3.796 9.896,-3.796c1.424,0 2.83,0.44 4.152,0.966l0.967,0.373c1.102,0.407 2.305,0.796 3.49,0.796c1.475,0 2.797,-0.966 3.932,-1.813l0.37,0zm4.627,0.814l16.539,0l0,0.474l-4.389,0l0,35.91c0,5.625 5.795,9.049 10.861,9.049c5.457,0 10.049,-3.795 10.049,-9.371l0,-35.589l-5.184,0l0,-0.474l42.688,0l0,16.658l-0.322,0c-0.492,-4.406 -1.34,-8.931 -4.373,-12.371c-3.066,-3.474 -7.236,-3.813 -11.523,-3.813l-4.625,0l0,21.421c0.947,0.101 1.914,0.169 2.881,0.169c5.812,0 7.32,-3.999 7.574,-8.948l0.424,0l0,18.793l-0.424,0c-0.729,-4.49 -2.711,-9.303 -7.982,-9.303c-0.83,0 -1.643,0.051 -2.473,0.119l0,22.911l6.93,0c3.594,0 7.168,-1.559 9.711,-4.066c2.168,-2.135 3.678,-4.914 4.203,-7.914c0.287,-1.678 0.424,-3.389 0.508,-5.084l0.373,0l0,17.539l-33.367,0l0,-0.475l3.881,0l0,-45.162l-8.203,0l0,35.724c0,7.387 -7.016,10.658 -13.59,10.658c-7.439,0 -15.643,-3.609 -15.643,-12.117l0,-34.265l-4.523,0l0,-0.473l-0.001,0z"/>
  <path id="svg_4" fill="#fff" d="m69.382,36.438c0,-6.728 -2.406,-23.539 -11.506,-23.539c-9.134,0 -11.507,16.794 -11.507,23.539c0,6.744 2.39,23.555 11.507,23.555c9.1,-0.001 11.506,-16.827 11.506,-23.555z"/>
 </g>
</svg>